<?xml version="1.0" encoding="utf-8"?>
<!-- Generator: Adobe Illustrator 22.1.0, SVG Export Plug-In . SVG Version: 6.00 Build 0)  -->
<svg version="1.1" id="Ebene_1" xmlns="http://www.w3.org/2000/svg" xmlns:xlink="http://www.w3.org/1999/xlink" x="0px" y="0px"
	 viewBox="0 0 124.9 128.6" style="enable-background:new 0 0 124.9 128.6;" xml:space="preserve">
<style type="text/css">
	.st0{fill:#333399;}
	.st1{fill:#009999;}
	.st2{fill:#FF0066;}
	.st3{fill:#FFCC00;}
	.st4{fill:#FF0000;}
	.st5{fill:#669933;}
	.st6{fill:#663399;}
</style>
<polygon class="st0" points="83.3,111.5 65.8,101.3 65.8,121.6 71,118.6 76.7,128.6 83.9,124.4 78.1,114.5 "/>
<polygon class="st1" points="110,96.1 92.5,85.9 92.5,106.2 97.6,103.2 103.4,113.2 110.6,109 104.8,99.1 "/>
<polygon class="st2" points="14.9,33.4 32.4,43.5 32.4,23.3 27.2,26.3 21.5,16.3 14.3,20.4 20,30.4 "/>
<polygon class="st3" points="41.5,18 59.1,28.1 59.1,7.9 53.9,10.9 48.1,0.9 41,5 46.7,15 "/>
<path class="st4" d="M109.1,64.7L91.5,54.6v6h-6.7v-8.8l-7.6-4.4l3.3-5.8l5.2,3V24.3L68.1,34.4l5.2,3l-3.4,5.8l-7.6-4.4l-7.6,4.4
	l-3.3-5.8l5.2-3L39.1,24.3v20.3l5.2-3l3.3,5.8L40,51.8v8.8h-6.7v-6L15.8,64.7l17.5,10.2v-6H40v8.8l7.6,4.4l-3.3,5.8l-5.2-3v20.3
	l17.6-10.1l-5.2-3l3.3-5.8l7.6,4.4l7.6-4.4l3.4,5.8l-5.2,3l17.6,10.1V84.9l-5.2,3l-3.4-5.8l7.6-4.4v-8.8h6.7v6L109.1,64.7z
	 M62.4,76.7l-10.4-6v-12l10.4-6l10.4,6v12L62.4,76.7z"/>
<polygon class="st1" points="113.4,76 113.4,70 95.8,80.1 113.4,90.3 113.4,84.3 124.9,84.3 124.9,76 "/>
<polygon class="st5" points="95.8,49.3 113.4,59.5 113.4,53.5 124.9,53.5 124.9,45.2 113.4,45.2 113.4,39.2 "/>
<polygon class="st6" points="29.1,80.1 11.5,70 11.5,76 0,76 0,84.3 11.5,84.3 11.5,90.3 "/>
<polygon class="st2" points="11.5,59.5 29.1,49.3 11.5,39.2 11.5,45.2 0,45.2 0,53.5 11.5,53.5 "/>
<polygon class="st5" points="104.8,30.4 110.6,20.4 103.4,16.3 97.7,26.3 92.4,23.3 92.4,43.5 110,33.4 "/>
<polygon class="st3" points="83.3,18 78.2,15 83.9,5 76.7,0.9 71,10.9 65.8,7.9 65.8,28.1 "/>
<polygon class="st0" points="46.7,114.5 41,124.4 48.2,128.6 53.9,118.6 59.1,121.6 59.1,101.3 41.5,111.5 "/>
<polygon class="st6" points="20.1,99.1 14.3,109 21.5,113.2 27.2,103.2 32.4,106.2 32.4,85.9 14.9,96.1 "/>
</svg>
