<?xml version="1.0" encoding="utf-8"?>
<!-- Generator: Adobe Illustrator 22.1.0, SVG Export Plug-In . SVG Version: 6.00 Build 0)  -->
<svg version="1.1" id="Ebene_1" xmlns="http://www.w3.org/2000/svg" xmlns:xlink="http://www.w3.org/1999/xlink" x="0px" y="0px"
	 viewBox="0 0 2768.2 3467.5" style="enable-background:new 0 0 2768.2 3467.5;" xml:space="preserve">
<style type="text/css">
	.st0{fill:#333399;}
	.st1{fill:#009999;}
	.st2{fill:#FF0066;}
	.st3{fill:#FFCC00;}
	.st4{fill:#FF0000;}
	.st5{fill:#669933;}
	.st6{fill:#663399;}
	.st7{enable-background:new    ;}
</style>
<g>
	<polygon class="st0" points="1847.7,2451 1459.5,2227 1459.5,2677.3 1572.6,2610.7 1701.3,2832.5 1861,2739.4 1732.3,2517.5 	"/>
	<polygon class="st1" points="2439.9,2109.4 2049.5,1885.4 2049.5,2335.7 2164.9,2269.1 2293.5,2490.9 2453.2,2397.8 2324.6,2176 	
		"/>
	<polygon class="st2" points="330.5,720.9 718.7,944.9 718.7,494.6 603.3,561.2 474.7,341.6 317.2,432.5 443.6,654.3 	"/>
	<polygon class="st3" points="920.5,379.3 1310.9,603.3 1310.9,153 1195.6,219.6 1066.9,0 907.2,90.9 1035.9,312.8 	"/>
	<path class="st4" d="M2420,1415.1l-390.4-224v133.1H1881V1129l-168.6-97.6l73.2-128.6l115.3,66.5V519l-388.2,224l115.3,66.5
		l-75.4,128.6L1384,840.5l-168.6,97.6l-73.2-128.6l115.3-66.5L867.3,519v450.3l115.3-66.5l73.2,128.7L887.2,1129v195.2H738.6v-133.1
		l-388.2,224l388.2,224V1506h148.6v195.2l168.6,97.6l-73.2,128.7L867.3,1861v450.3l390.4-224l-115.3-66.5l73.2-128.7l168.6,97.6
		l168.6-97.6l75.4,128.7l-115.3,66.5l390.4,224V1861l-115.3,66.5l-75.4-128.7l168.6-97.6V1506h148.6v133.1L2420,1415.1z
		 M1384.1,1681.3l-230.7-133.1V1282l230.7-133.1l230.7,133.1v266.2L1384.1,1681.3z"/>
	<polygon class="st1" points="2513.1,1665.8 2513.1,1532.7 2124.9,1756.7 2513.1,1980.8 2513.1,1849.9 2768.2,1849.9 2768.2,1665.8 
			"/>
	<polygon class="st5" points="2124.9,1073.6 2513.1,1297.6 2513.1,1166.7 2768.2,1166.7 2768.2,982.6 2513.1,982.6 2513.1,849.5 	
		"/>
	<polygon class="st6" points="643.2,1756.7 255.1,1532.7 255.1,1665.8 0,1665.8 0,1849.9 255.1,1849.9 255.1,1980.8 	"/>
	<polygon class="st2" points="255.1,1297.6 643.2,1073.6 255.1,849.5 255.1,982.6 0,982.6 0,1166.7 255.1,1166.7 	"/>
	<polygon class="st5" points="2324.6,654.3 2453.2,432.5 2293.5,341.6 2164.9,561.2 2049.5,494.6 2049.5,944.9 2439.9,720.9 	"/>
	<polygon class="st3" points="1847.7,379.3 1732.3,312.8 1861,90.9 1701.3,0 1574.9,219.6 1459.5,153 1459.5,603.3 	"/>
	<polygon class="st0" points="1035.9,2517.5 909.4,2739.4 1066.9,2832.5 1195.6,2610.7 1310.9,2677.3 1310.9,2227 920.5,2451 	"/>
	<polygon class="st6" points="443.6,2176 317.2,2397.8 476.9,2490.9 603.3,2269.1 718.7,2335.7 718.7,1885.4 328.3,2109.4 	"/>
</g>
<g class="st7">
	<path class="st4" d="M0.8,3438.1v-527.3H328v74.7H86.3v177.8h200.9v74.7H86.3v200.2H0.8z"/>
	<path class="st4" d="M342.6,3438.1l130.1-527.3h170.1l130.9,527.3h-86.2L659,3324.9H456.6l-28.5,113.2H342.6z M538.9,2982.3
		l-65.4,267.1h168.6l-64.7-267.1H538.9z"/>
	<path class="st4" d="M849.2,3438.1v-527.3h85.5v527.3H849.2z"/>
	<path class="st4" d="M1141.7,3250.3v187.8h-85.5v-527.3h200.2c119.1,0,178.6,55.9,178.6,167.8c0,74.9-28.7,125.8-86.2,152.4
		l87,207.1h-93.9l-76.2-187.8H1141.7z M1347.3,3079.3c0-63.1-30.3-94.7-90.8-94.7h-114.7v191.7H1258c30.8,0,53.4-8.9,67.7-26.6
		C1340.1,3132.1,1347.3,3108.6,1347.3,3079.3z"/>
	<path class="st4" d="M1605.9,3438.1H1522v-384.9h83.1v23.9c36.4-21.6,69.8-32.3,100.1-32.3c44.7,0,77.2,12.6,97.8,37.7
		c46.7-25.1,93.2-37.7,139.3-37.7s78.8,14.2,97.8,42.7c19,28.5,28.5,76.6,28.5,144.3v206.3h-83.1v-204c0-41.6-4.2-71.1-12.7-88.5
		c-8.5-17.4-26.1-26.2-52.7-26.2c-23.1,0-48,5.1-74.7,15.4l-13.1,5.4c4.1,10.3,6.2,43.1,6.2,98.5v199.4h-83.1v-197.8
		c0-45.7-4.1-77.2-12.3-94.7c-8.2-17.4-26.2-26.2-53.9-26.2c-25.7,0-49.5,5.1-71.6,15.4l-11.5,4.6V3438.1z"/>
	<path class="st4" d="M2452,3171.7v175.5c0.5,11.3,3.5,19.6,8.9,25c5.4,5.4,13.7,8.9,25,10.4l-2.3,63.9c-44.1,0-78.3-9.5-102.4-28.5
		c-41.1,19-82.4,28.5-123.9,28.5c-76.5,0-114.7-40.8-114.7-122.4c0-39,10.4-67.2,31.2-84.7c20.8-17.4,52.7-28,95.8-31.6l99.3-8.5
		v-27.7c0-20.5-4.5-34.9-13.5-43.1c-9-8.2-22.2-12.3-39.6-12.3c-32.9,0-73.9,2.1-123.2,6.2l-24.6,1.5l-3.1-59.3
		c55.9-13.3,107.4-20,154.4-20c47,0,80.8,10.1,101.6,30.4C2441.6,3095.4,2452,3127.6,2452,3171.7z M2279.6,3267.2
		c-35.4,3.1-53.1,22.3-53.1,57.7s15.6,53.1,47,53.1c25.7,0,52.9-4.1,81.6-12.3l13.9-4.6v-102.4L2279.6,3267.2z"/>
	<path class="st4" d="M2764.5,3124.8h-106.2v169.4c0,31.3,2.3,52.1,6.9,62.4c4.6,10.3,16.4,15.4,35.4,15.4l63.1-2.3l3.8,67
		c-34.4,6.7-60.6,10-78.5,10c-43.6,0-73.5-10-89.7-30c-16.2-20-24.3-57.7-24.3-113.2v-178.6h-49.3v-71.6h49.3v-111.6h83.1v111.6
		h106.2V3124.8z"/>
</g>
</svg>
