<?xml version="1.0" encoding="utf-8"?>
<!-- Generator: Adobe Illustrator 22.1.0, SVG Export Plug-In . SVG Version: 6.00 Build 0)  -->
<svg version="1.1" id="Ebene_1" xmlns="http://www.w3.org/2000/svg" xmlns:xlink="http://www.w3.org/1999/xlink" x="0px" y="0px"
	 viewBox="0 0 137 137" style="enable-background:new 0 0 137 137;" xml:space="preserve">
<style type="text/css">
	.st0{fill:#FFFFFF;}
</style>
<polygon class="st0" points="89,115.1 71.5,105 71.5,125.3 76.6,122.3 82.4,132.3 89.6,128.1 83.8,118.1 "/>
<polygon class="st0" points="115.7,99.7 98.1,89.6 98.1,109.9 103.3,106.9 109.1,116.9 116.3,112.7 110.5,102.7 "/>
<polygon class="st0" points="20.6,37.1 38.1,47.2 38.1,26.9 32.9,29.9 27.1,20 20,24.1 25.7,34.1 "/>
<polygon class="st0" points="47.2,21.7 64.8,31.8 64.8,11.5 59.6,14.5 53.8,4.6 46.6,8.7 52.4,18.7 "/>
<path class="st0" d="M114.8,68.4L97.2,58.3v6h-6.7v-8.8l-7.6-4.4l3.3-5.8l5.2,3V28L73.9,38.1l5.2,3l-3.4,5.8l-7.6-4.4l-7.6,4.4
	l-3.3-5.8l5.2-3L44.8,28v20.3l5.2-3l3.3,5.8l-7.6,4.4v8.8H39v-6L21.5,68.4L39,78.5v-6h6.7v8.8l7.6,4.4L50,91.5l-5.2-3v20.3
	l17.6-10.1l-5.2-3l3.3-5.8l7.6,4.4l7.6-4.4l3.4,5.8l-5.2,3l17.6,10.1V88.5l-5.2,3l-3.4-5.8l7.6-4.4v-8.8h6.7v6L114.8,68.4z
	 M68.1,80.4l-10.4-6v-12l10.4-6l10.4,6v12L68.1,80.4z"/>
<polygon class="st0" points="119,79.7 119,73.7 101.5,83.8 119,93.9 119,88 130.5,88 130.5,79.7 "/>
<polygon class="st0" points="101.5,53 119,63.1 119,57.2 130.5,57.2 130.5,48.9 119,48.9 119,42.9 "/>
<polygon class="st0" points="34.7,83.8 17.2,73.7 17.2,79.7 5.7,79.7 5.7,88 17.2,88 17.2,93.9 "/>
<polygon class="st0" points="17.2,63.1 34.7,53 17.2,42.9 17.2,48.9 5.7,48.9 5.7,57.2 17.2,57.2 "/>
<polygon class="st0" points="110.5,34.1 116.3,24.1 109.1,20 103.3,29.9 98.1,26.9 98.1,47.2 115.7,37.1 "/>
<polygon class="st0" points="89,21.7 83.8,18.7 89.6,8.7 82.4,4.6 76.7,14.5 71.5,11.5 71.5,31.8 "/>
<polygon class="st0" points="52.4,118.1 46.7,128.1 53.8,132.3 59.6,122.3 64.8,125.3 64.8,105 47.2,115.1 "/>
<polygon class="st0" points="25.7,102.7 20,112.7 27.2,116.9 32.9,106.9 38.1,109.9 38.1,89.6 20.5,99.7 "/>
</svg>
